<?xml version="1.0" standalone="no"?>
<!DOCTYPE svg PUBLIC "-//W3C//DTD SVG 20010904//EN"
 "http://www.w3.org/TR/2001/REC-SVG-20010904/DTD/svg10.dtd">
<svg version="1.0" xmlns="http://www.w3.org/2000/svg"
 width="186.000000pt" height="163.000000pt" viewBox="0 0 186.000000 163.000000"
 preserveAspectRatio="xMidYMid meet">

<g transform="translate(0.000000,163.000000) scale(0.100000,-0.100000)"
fill="#000000" stroke="none">
<path d="M270 1518 c-49 -8 -93 -36 -98 -60 -5 -26 28 -51 57 -43 14 3 54 9
89 12 54 5 69 2 115 -21 28 -14 67 -39 85 -54 l33 -27 -20 -45 c-26 -56 -26
-103 -2 -156 27 -60 80 -96 146 -102 71 -6 97 2 140 40 80 70 88 186 17 261
-42 45 -77 59 -142 56 -55 -2 -61 0 -111 40 -106 85 -206 117 -309 99z m480
-208 c33 -17 40 -26 40 -50 0 -44 -29 -56 -86 -34 -51 20 -70 44 -54 73 18 36
46 38 100 11z"/>
<path d="M903 1289 c24 -50 26 -129 4 -182 l-17 -38 28 21 c65 50 211 144 262
168 30 13 89 35 130 48 l75 23 -251 0 -251 1 20 -41z"/>
<path d="M1295 1231 c-160 -56 -258 -119 -276 -179 -20 -67 18 -282 50 -282
18 0 24 49 12 108 -14 73 -1 122 41 157 34 29 74 30 92 3 8 -13 7 -21 -3 -30
-11 -10 -14 -10 -18 0 -3 6 -13 12 -23 12 -53 0 -57 -147 -6 -189 23 -19 58 0
82 44 15 29 16 39 6 73 -19 61 -15 99 10 116 45 32 118 13 138 -34 16 -39 -1
-67 -50 -80 -35 -9 -39 -13 -30 -30 5 -10 20 -22 31 -25 51 -17 107 52 133
165 23 98 21 146 -9 175 -32 33 -77 32 -180 -4z"/>
<path d="M447 1178 c-13 -29 -17 -68 -17 -169 l0 -132 83 5 c82 5 164 32 220
73 22 17 21 17 -14 11 -20 -4 -56 0 -83 8 -93 28 -153 96 -166 189 l-7 52 -16
-37z"/>
<path d="M1307 1044 c-4 -4 -7 -23 -7 -41 0 -29 3 -34 21 -31 30 4 47 33 33
56 -12 19 -36 27 -47 16z"/>
<path d="M943 1028 c-7 -8 -51 -40 -97 -72 -79 -52 -116 -72 -267 -139 -46
-20 -62 -34 -85 -73 -28 -47 -29 -55 -32 -198 l-4 -148 44 7 c23 4 78 21 121
37 l77 30 -22 18 c-26 21 -37 18 -18 -5 10 -12 9 -16 -3 -21 -9 -3 -20 -3 -26
0 -10 6 -34 107 -46 189 -6 42 -4 47 13 47 25 0 30 -15 39 -102 l6 -71 18 35
c18 36 43 53 60 42 16 -9 10 -29 -13 -39 -31 -14 -46 -41 -31 -56 19 -19 62 5
79 46 34 83 3 194 -60 215 -33 10 -42 9 -84 -12 -47 -23 -74 -58 -88 -111 -5
-24 -3 -29 15 -34 24 -6 23 -21 -2 -37 -23 -15 -51 4 -55 37 -13 104 145 223
246 186 70 -27 104 -147 67 -236 -8 -19 -15 -37 -15 -39 0 -2 20 11 45 28 40
28 43 33 30 48 -7 8 -20 46 -28 83 -12 61 -12 68 3 82 25 22 36 3 45 -73 10
-87 29 -76 33 18 2 40 -1 85 -7 101 -8 22 -6 31 10 45 27 24 35 12 51 -75 7
-41 19 -76 26 -79 16 -5 16 43 -3 143 -8 44 -18 107 -22 139 -7 49 -10 57 -20
44z"/>
<path d="M1481 955 c-8 -22 -27 -52 -43 -67 l-28 -26 42 5 c24 3 44 7 46 8 2
2 2 29 0 61 l-3 59 -14 -40z"/>
<path d="M1272 855 c-16 -35 -16 -35 21 -22 43 16 43 15 21 32 -26 20 -29 19
-42 -10z"/>
<path d="M1102 781 c-12 -34 -8 -37 26 -18 22 13 23 13 4 31 -19 16 -20 16
-30 -13z"/>
<path d="M1330 784 c-77 -21 -165 -63 -253 -123 -83 -56 -94 -68 -79 -83 8 -8
14 -4 23 14 6 14 22 32 35 39 21 11 27 10 40 -3 22 -22 10 -55 -28 -78 l-31
-18 41 -12 c74 -19 94 -80 41 -124 -49 -41 -102 -31 -101 19 0 35 27 64 44 47
9 -9 8 -15 -6 -25 -22 -16 -18 -50 6 -55 23 -4 58 33 58 62 0 29 -14 41 -61
54 -20 5 -46 18 -57 28 -49 45 -49 45 -79 21 -102 -84 -266 -172 -342 -183
-179 -24 -260 -72 -299 -174 l-10 -25 97 3 c63 2 163 -5 291 -22 397 -52 599
-57 742 -21 132 34 229 109 261 201 18 50 30 127 20 122 -5 -2 -36 -18 -70
-36 -34 -17 -67 -32 -73 -32 -6 0 -10 73 -10 210 l0 210 -72 -1 c-40 0 -98 -7
-128 -15z m180 -49 c6 -8 9 -19 5 -25 -8 -13 -35 -13 -35 1 0 5 -5 7 -11 3 -7
-4 -9 -21 -5 -45 6 -41 -6 -52 -23 -22 -8 14 -11 11 -25 -20 -12 -29 -21 -37
-40 -37 -14 0 -30 8 -35 18 -9 15 -10 14 -11 -6 0 -29 -17 -62 -32 -62 -7 0
-9 13 -5 36 6 38 0 64 -15 64 -11 0 -6 -74 6 -102 6 -13 4 -18 -7 -18 -8 0
-17 -3 -19 -7 -6 -14 -67 -53 -82 -53 -7 0 -17 12 -20 27 -8 31 11 83 30 83 8
0 14 5 14 10 0 6 7 10 15 10 9 0 15 -9 15 -22 0 -24 16 -56 23 -48 8 8 -28
137 -42 154 -11 13 -11 19 -1 31 9 11 16 13 23 6 7 -7 16 -6 29 6 17 15 18 15
18 -4 0 -12 -7 -23 -15 -27 -23 -8 -7 -35 17 -28 14 3 26 -1 34 -13 13 -17 14
-16 14 13 0 32 29 72 51 72 6 0 13 -9 16 -20 8 -30 26 -24 20 6 -4 23 -2 25
19 21 14 -2 27 0 30 4 8 14 30 11 44 -6z"/>
<path d="M1360 660 c0 -43 24 -66 41 -39 13 20 11 29 -6 29 -9 0 -15 9 -15 25
0 14 -4 25 -10 25 -5 0 -10 -18 -10 -40z"/>
<path d="M1185 548 c-9 -22 -2 -63 10 -63 14 0 18 41 6 62 -9 17 -10 17 -16 1z"/>
<path d="M1020 714 c0 -8 5 -12 10 -9 6 4 8 11 5 16 -9 14 -15 11 -15 -7z"/>
<path d="M926 657 c-7 -27 -4 -30 17 -14 13 10 14 14 2 24 -10 9 -14 8 -19
-10z"/>
<path d="M1062 595 c-25 -18 -29 -35 -8 -35 17 0 39 26 34 40 -2 6 -12 4 -26
-5z"/>
</g>
</svg>
